<svg width="80" height="80" viewBox="0 0 80 80" fill="none" xmlns="http://www.w3.org/2000/svg">
<path fill-rule="evenodd" clip-rule="evenodd" d="M2 40C2 60.9868 19.0132 78 40 78C60.9868 78 78 60.9868 78 40C78 19.0132 60.9868 2 40 2C19.0132 2 2 19.0132 2 40ZM40 0C17.9086 0 0 17.9086 0 40C0 62.0914 17.9086 80 40 80C62.0914 80 80 62.0914 80 40C80 17.9086 62.0914 0 40 0Z" fill="#99CEFA"/>
<path fill-rule="evenodd" clip-rule="evenodd" d="M6 40C6 58.7777 21.2223 74 40 74C58.7777 74 74 58.7777 74 40C74 21.2223 58.7777 6 40 6C21.2223 6 6 21.2223 6 40ZM40 4C20.1178 4 4 20.1178 4 40C4 59.8823 20.1178 76 40 76C59.8823 76 76 59.8823 76 40C76 20.1178 59.8823 4 40 4Z" fill="#99CEFA"/>
<path fill-rule="evenodd" clip-rule="evenodd" d="M48.7272 39.3272H36.1504C39.4526 37.8093 41.7454 34.4724 41.7454 30.6C41.7454 26.7275 39.4525 23.3905 36.1502 21.8727H48.7272C53.5472 21.8727 57.4545 25.78 57.4545 30.6C57.4545 35.4199 53.5472 39.3272 48.7272 39.3272ZM32.1454 21.8727C27.3255 21.8727 23.4181 25.7801 23.4181 30.6C23.4181 35.4098 27.3091 39.3109 32.1151 39.3272H32.1757C36.9817 39.3109 40.8727 35.4098 40.8727 30.6C40.8727 25.7801 36.9653 21.8727 32.1454 21.8727ZM32.1454 37.1454C28.5305 37.1454 25.6 34.2149 25.6 30.6C25.6 26.985 28.5305 24.0545 32.1454 24.0545C35.7604 24.0545 38.6909 26.985 38.6909 30.6C38.6909 34.2149 35.7604 37.1454 32.1454 37.1454ZM32.1454 24.9272C29.0125 24.9272 26.4727 27.467 26.4727 30.6C26.4727 33.7329 29.0125 36.2727 32.1454 36.2727C35.2784 36.2727 37.8181 33.7329 37.8181 30.6C37.8181 27.467 35.2784 24.9272 32.1454 24.9272ZM28.6545 30.6C28.6545 32.528 30.2174 34.0909 32.1454 34.0909C34.0734 34.0909 35.6363 32.528 35.6363 30.6C35.6363 28.672 34.0734 27.1091 32.1454 27.1091C30.2174 27.1091 28.6545 28.672 28.6545 30.6ZM29.5272 30.6C29.5272 29.154 30.6994 27.9818 32.1454 27.9818C33.5914 27.9818 34.7636 29.154 34.7636 30.6C34.7636 32.046 33.5914 33.2182 32.1454 33.2182C30.6994 33.2182 29.5272 32.046 29.5272 30.6ZM41.7454 24.0545C41.7454 23.8135 41.9408 23.6181 42.1818 23.6181H46.1091C46.3501 23.6181 46.5454 23.8135 46.5454 24.0545C46.5454 24.2955 46.3501 24.4909 46.1091 24.4909H42.1818C41.9408 24.4909 41.7454 24.2955 41.7454 24.0545ZM47.8545 24.0545C47.8545 23.8135 48.0498 23.6181 48.2908 23.6181H49.5999C49.8409 23.6181 50.0363 23.8135 50.0363 24.0545C50.0363 24.2955 49.8409 24.4909 49.5999 24.4909H48.2908C48.0498 24.4909 47.8545 24.2955 47.8545 24.0545Z" fill="url(#paint0_linear)"/>
<path fill-rule="evenodd" clip-rule="evenodd" d="M16.0135 50.1861C16.0047 50.0199 16.0002 49.8526 16 49.6843C16 49.688 16 49.6917 16 49.6953C16 49.86 16.0045 50.0236 16.0135 50.1861ZM29.5046 58.4453H40.0227C37.5244 57.3317 35.5895 55.1823 34.7636 52.5427C33.9378 55.1823 32.0029 57.3317 29.5046 58.4453ZM47.8319 58.4453H55.2727C60.0927 58.4453 64 54.5278 64 49.6953C64 44.8629 60.0927 40.9453 55.2727 40.9453H47.9321C51.2344 42.4632 53.5273 45.8002 53.5273 49.6727C53.5273 53.5842 51.1879 56.9494 47.8319 58.4453ZM39.9225 40.9453L29.6048 40.9453C32.0546 42.0713 33.9489 44.1985 34.7636 46.8027C35.5784 44.1985 37.4727 42.0713 39.9225 40.9453ZM16.8727 49.6727C16.8727 44.8527 20.7801 40.9454 25.6 40.9454C30.4199 40.9454 34.3273 44.8527 34.3273 49.6727C34.3273 54.4926 30.4199 58.3999 25.6 58.3999C20.7801 58.3999 16.8727 54.4926 16.8727 49.6727ZM19.0546 49.6726C19.0546 53.2876 21.9851 56.2181 25.6 56.2181C29.215 56.2181 32.1455 53.2876 32.1455 49.6726C32.1455 46.0577 29.215 43.1272 25.6 43.1272C21.9851 43.1272 19.0546 46.0577 19.0546 49.6726ZM19.9273 49.6726C19.9273 46.5397 22.467 43.9999 25.6 43.9999C28.733 43.9999 31.2727 46.5397 31.2727 49.6726C31.2727 52.8056 28.733 55.3454 25.6 55.3454C22.467 55.3454 19.9273 52.8056 19.9273 49.6726ZM25.6 53.1636C23.672 53.1636 22.1091 51.6007 22.1091 49.6727C22.1091 47.7447 23.672 46.1818 25.6 46.1818C27.528 46.1818 29.0909 47.7447 29.0909 49.6727C29.0909 51.6007 27.528 53.1636 25.6 53.1636ZM25.6 47.0545C24.154 47.0545 22.9818 48.2267 22.9818 49.6727C22.9818 51.1187 24.154 52.2909 25.6 52.2909C27.046 52.2909 28.2182 51.1187 28.2182 49.6727C28.2182 48.2267 27.046 47.0545 25.6 47.0545ZM35.2 49.6727C35.2 44.8527 39.1073 40.9454 43.9273 40.9454C48.7472 40.9454 52.6546 44.8527 52.6546 49.6727C52.6546 54.4926 48.7472 58.3999 43.9273 58.3999C39.1073 58.3999 35.2 54.4926 35.2 49.6727ZM43.9273 56.2181C40.3123 56.2181 37.3818 53.2876 37.3818 49.6726C37.3818 46.0577 40.3123 43.1272 43.9273 43.1272C47.5422 43.1272 50.4727 46.0577 50.4727 49.6726C50.4727 53.2876 47.5422 56.2181 43.9273 56.2181ZM43.9273 43.9999C40.7943 43.9999 38.2546 46.5397 38.2546 49.6726C38.2546 52.8056 40.7943 55.3454 43.9273 55.3454C47.0602 55.3454 49.6 52.8056 49.6 49.6726C49.6 46.5397 47.0602 43.9999 43.9273 43.9999ZM40.4364 49.6727C40.4364 51.6007 41.9993 53.1636 43.9273 53.1636C45.8552 53.1636 47.4182 51.6007 47.4182 49.6727C47.4182 47.7447 45.8552 46.1818 43.9273 46.1818C41.9993 46.1818 40.4364 47.7447 40.4364 49.6727ZM41.3091 49.6727C41.3091 48.2267 42.4813 47.0545 43.9273 47.0545C45.3733 47.0545 46.5455 48.2267 46.5455 49.6727C46.5455 51.1187 45.3733 52.2909 43.9273 52.2909C42.4813 52.2909 41.3091 51.1187 41.3091 49.6727ZM53.5273 43.1272C53.5273 42.8862 53.7227 42.6908 53.9637 42.6908H57.8909C58.1319 42.6908 58.3273 42.8862 58.3273 43.1272C58.3273 43.3682 58.1319 43.5635 57.8909 43.5635H53.9637C53.7227 43.5635 53.5273 43.3682 53.5273 43.1272Z" fill="url(#paint1_linear)"/>
<defs>
<linearGradient id="paint0_linear" x1="40.4363" y1="21.8727" x2="40.4363" y2="39.3272" gradientUnits="userSpaceOnUse">
<stop stop-color="#99CEFA"/>
<stop offset="1" stop-color="#68BBFF"/>
</linearGradient>
<linearGradient id="paint1_linear" x1="40" y1="40.9453" x2="40" y2="58.4453" gradientUnits="userSpaceOnUse">
<stop stop-color="#99CEFA"/>
<stop offset="1" stop-color="#68BBFF"/>
</linearGradient>
</defs>
</svg>
