<svg width="20" height="21" viewBox="0 0 20 21" fill="none" xmlns="http://www.w3.org/2000/svg">
<g clip-path="url(#clip0)">
<rect y="0.888672" width="20" height="20" rx="10" fill="#333333"/>
<path fill-rule="evenodd" clip-rule="evenodd" d="M0.5 10.8887C0.5 16.1354 4.75329 20.3887 10 20.3887C15.2467 20.3887 19.5 16.1354 19.5 10.8887C19.5 5.64197 15.2467 1.38867 10 1.38867C4.75329 1.38867 0.5 5.64197 0.5 10.8887ZM10 0.888672C4.47715 0.888672 0 5.36582 0 10.8887C0 16.4115 4.47715 20.8887 10 20.8887C15.5228 20.8887 20 16.4115 20 10.8887C20 5.36582 15.5228 0.888672 10 0.888672Z" fill="#99CEFA"/>
<path fill-rule="evenodd" clip-rule="evenodd" d="M1.5 10.8887C1.5 15.5831 5.30558 19.3887 10 19.3887C14.6944 19.3887 18.5 15.5831 18.5 10.8887C18.5 6.19425 14.6944 2.38867 10 2.38867C5.30558 2.38867 1.5 6.19425 1.5 10.8887ZM10 1.88867C5.02944 1.88867 1 5.91811 1 10.8887C1 15.8592 5.02944 19.8887 10 19.8887C14.9706 19.8887 19 15.8592 19 10.8887C19 5.91811 14.9706 1.88867 10 1.88867Z" fill="#99CEFA"/>
<path fill-rule="evenodd" clip-rule="evenodd" d="M12.182 10.7204H9.03781C9.86335 10.341 10.4366 9.50675 10.4366 8.53864C10.4366 7.57051 9.86332 6.73627 9.03776 6.35681H12.182C13.387 6.35681 14.3638 7.33364 14.3638 8.53863C14.3638 9.74361 13.387 10.7204 12.182 10.7204ZM8.03655 6.35682C6.83157 6.35682 5.85474 7.33366 5.85474 8.53864C5.85474 9.7411 6.82748 10.7164 8.02898 10.7204H8.04413C9.24563 10.7164 10.2184 9.7411 10.2184 8.53864C10.2184 7.33366 9.24154 6.35682 8.03655 6.35682ZM8.03656 10.175C7.13282 10.175 6.40019 9.44237 6.40019 8.53863C6.40019 7.63489 7.13282 6.90227 8.03656 6.90227C8.94029 6.90227 9.67292 7.63489 9.67292 8.53863C9.67292 9.44237 8.94029 10.175 8.03656 10.175ZM8.03656 7.12045C7.25332 7.12045 6.61837 7.75539 6.61837 8.53863C6.61837 9.32187 7.25332 9.95681 8.03656 9.95681C8.8198 9.95681 9.45474 9.32187 9.45474 8.53863C9.45474 7.75539 8.8198 7.12045 8.03656 7.12045ZM7.16382 8.53864C7.16382 9.02064 7.55456 9.41137 8.03655 9.41137C8.51854 9.41137 8.90928 9.02064 8.90928 8.53864C8.90928 8.05665 8.51854 7.66592 8.03655 7.66592C7.55456 7.66592 7.16382 8.05665 7.16382 8.53864ZM7.38201 8.53864C7.38201 8.17715 7.67506 7.8841 8.03655 7.8841C8.39805 7.8841 8.6911 8.17715 8.6911 8.53864C8.6911 8.90014 8.39805 9.19319 8.03655 9.19319C7.67506 9.19319 7.38201 8.90014 7.38201 8.53864ZM10.4366 6.90227C10.4366 6.84202 10.4854 6.79318 10.5456 6.79318H11.5275C11.5877 6.79318 11.6366 6.84202 11.6366 6.90227C11.6366 6.96252 11.5877 7.01136 11.5275 7.01136H10.5456C10.4854 7.01136 10.4366 6.96252 10.4366 6.90227ZM11.9638 6.90227C11.9638 6.84202 12.0127 6.79318 12.0729 6.79318H12.4002C12.4604 6.79318 12.5093 6.84202 12.5093 6.90227C12.5093 6.96252 12.4604 7.01136 12.4002 7.01136H12.0729C12.0127 7.01136 11.9638 6.96252 11.9638 6.90227Z" fill="url(#paint0_linear)"/>
<path fill-rule="evenodd" clip-rule="evenodd" d="M4.00337 13.4352C4.00118 13.3936 4.00005 13.3518 4 13.3097C4 13.3107 4 13.3116 4 13.3125C4 13.3537 4.00113 13.3946 4.00337 13.4352ZM7.37616 15.5H10.0057C9.3811 15.2216 8.89738 14.6842 8.69091 14.0243C8.48445 14.6842 8.00072 15.2216 7.37616 15.5ZM11.958 15.5H13.8182C15.0232 15.5 16 14.5206 16 13.3125C16 12.1044 15.0232 11.125 13.8182 11.125H11.983C12.8086 11.5045 13.3818 12.3387 13.3818 13.3068C13.3818 14.2847 12.797 15.126 11.958 15.5ZM9.98062 11.125L7.4012 11.125C8.01364 11.4065 8.48721 11.9383 8.69091 12.5893C8.89461 11.9383 9.36818 11.4065 9.98062 11.125ZM4.21818 13.3068C4.21818 12.1018 5.19502 11.125 6.4 11.125C7.60498 11.125 8.58182 12.1018 8.58182 13.3068C8.58182 14.5118 7.60498 15.4886 6.4 15.4886C5.19502 15.4886 4.21818 14.5118 4.21818 13.3068ZM4.76364 13.3068C4.76364 14.2106 5.49626 14.9432 6.4 14.9432C7.30374 14.9432 8.03636 14.2106 8.03636 13.3068C8.03636 12.4031 7.30374 11.6705 6.4 11.6705C5.49626 11.6705 4.76364 12.4031 4.76364 13.3068ZM4.98182 13.3068C4.98182 12.5236 5.61676 11.8886 6.4 11.8886C7.18324 11.8886 7.81818 12.5236 7.81818 13.3068C7.81818 14.0901 7.18324 14.725 6.4 14.725C5.61676 14.725 4.98182 14.0901 4.98182 13.3068ZM6.4 14.1796C5.918 14.1796 5.52727 13.7888 5.52727 13.3068C5.52727 12.8248 5.918 12.4341 6.4 12.4341C6.88199 12.4341 7.27272 12.8248 7.27272 13.3068C7.27272 13.7888 6.88199 14.1796 6.4 14.1796ZM6.4 12.6523C6.0385 12.6523 5.74545 12.9453 5.74545 13.3068C5.74545 13.6683 6.0385 13.9614 6.4 13.9614C6.76149 13.9614 7.05454 13.6683 7.05454 13.3068C7.05454 12.9453 6.76149 12.6523 6.4 12.6523ZM8.8 13.3068C8.8 12.1018 9.77684 11.125 10.9818 11.125C12.1868 11.125 13.1636 12.1018 13.1636 13.3068C13.1636 14.5118 12.1868 15.4886 10.9818 15.4886C9.77684 15.4886 8.8 14.5118 8.8 13.3068ZM10.9818 14.9432C10.0781 14.9432 9.34546 14.2106 9.34546 13.3068C9.34546 12.4031 10.0781 11.6705 10.9818 11.6705C11.8856 11.6705 12.6182 12.4031 12.6182 13.3068C12.6182 14.2106 11.8856 14.9432 10.9818 14.9432ZM10.9818 11.8886C10.1986 11.8886 9.56364 12.5236 9.56364 13.3068C9.56364 14.0901 10.1986 14.725 10.9818 14.725C11.7651 14.725 12.4 14.0901 12.4 13.3068C12.4 12.5236 11.7651 11.8886 10.9818 11.8886ZM10.1091 13.3068C10.1091 13.7888 10.4998 14.1796 10.9818 14.1796C11.4638 14.1796 11.8545 13.7888 11.8545 13.3068C11.8545 12.8248 11.4638 12.4341 10.9818 12.4341C10.4998 12.4341 10.1091 12.8248 10.1091 13.3068ZM10.3273 13.3068C10.3273 12.9453 10.6203 12.6523 10.9818 12.6523C11.3433 12.6523 11.6364 12.9453 11.6364 13.3068C11.6364 13.6683 11.3433 13.9614 10.9818 13.9614C10.6203 13.9614 10.3273 13.6683 10.3273 13.3068ZM13.3818 11.6705C13.3818 11.6102 13.4307 11.5614 13.4909 11.5614H14.4727C14.533 11.5614 14.5818 11.6102 14.5818 11.6705C14.5818 11.7307 14.533 11.7795 14.4727 11.7795H13.4909C13.4307 11.7795 13.3818 11.7307 13.3818 11.6705Z" fill="url(#paint1_linear)"/>
</g>
<defs>
<linearGradient id="paint0_linear" x1="10.1093" y1="6.35681" x2="10.1093" y2="10.7204" gradientUnits="userSpaceOnUse">
<stop stop-color="#99CEFA"/>
<stop offset="1" stop-color="#68BBFF"/>
</linearGradient>
<linearGradient id="paint1_linear" x1="10" y1="11.125" x2="10" y2="15.5" gradientUnits="userSpaceOnUse">
<stop stop-color="#99CEFA"/>
<stop offset="1" stop-color="#68BBFF"/>
</linearGradient>
<clipPath id="clip0">
<rect width="20" height="20" fill="white" transform="translate(0 0.888672)"/>
</clipPath>
</defs>
</svg>
